<svg width="391" height="49" viewBox="0 0 391 49" fill="none" xmlns="http://www.w3.org/2000/svg">
<g clip-path="url(#clip0)">
<path fill-rule="evenodd" clip-rule="evenodd" d="M3.95298 40.4062C6.13648 40.4062 7.90608 42.211 7.90608 44.4373C7.90608 46.6638 6.13648 48.4686 3.95298 48.4686C1.76979 48.4686 -0.00012207 46.6638 -0.00012207 44.4373C-0.00012207 42.211 1.76979 40.4062 3.95298 40.4062ZM52.4998 40.4062C54.6919 40.4062 56.4688 42.211 56.4688 44.4373C56.4688 46.6638 54.6919 48.4686 52.4998 48.4686C50.3081 48.4686 48.5312 46.6638 48.5312 44.4373C48.5312 42.211 50.3081 40.4062 52.4998 40.4062ZM105.969 44.4373C105.969 42.211 104.192 40.4062 102 40.4062C99.8081 40.4062 98.0312 42.211 98.0312 44.4373C98.0312 46.6638 99.8081 48.4686 102 48.4686C104.192 48.4686 105.969 46.6638 105.969 44.4373ZM148.531 40.4062C150.723 40.4062 152.5 42.211 152.5 44.4373C152.5 46.6638 150.723 48.4686 148.531 48.4686C146.339 48.4686 144.563 46.6638 144.563 44.4373C144.563 42.211 146.339 40.4062 148.531 40.4062ZM202.031 44.4373C202.031 42.211 200.254 40.4062 198.063 40.4062C195.871 40.4062 194.094 42.211 194.094 44.4373C194.094 46.6638 195.871 48.4686 198.063 48.4686C200.254 48.4686 202.031 46.6638 202.031 44.4373ZM247.563 40.4062C249.754 40.4062 251.531 42.211 251.531 44.4373C251.531 46.6638 249.754 48.4686 247.563 48.4686C245.371 48.4686 243.594 46.6638 243.594 44.4373C243.594 42.211 245.371 40.4062 247.563 40.4062ZM301.031 44.4373C301.031 42.211 299.261 40.4062 297.078 40.4062C294.895 40.4062 293.125 42.211 293.125 44.4373C293.125 46.6638 294.895 48.4686 297.078 48.4686C299.261 48.4686 301.031 46.6638 301.031 44.4373Z" fill="white"/>
<path d="M487 40H334V48H487V40Z" fill="white"/>
</g>
<defs>
<clipPath id="clip0">
<rect width="640" height="49" fill="white"/>
</clipPath>
</defs>
</svg>
