<svg width="487" height="9" viewBox="0 0 487 9" fill="none" xmlns="http://www.w3.org/2000/svg">
<path fill-rule="evenodd" clip-rule="evenodd" d="M3.95298 0.406189C6.13648 0.406189 7.90608 2.21099 7.90608 4.43729C7.90608 6.66379 6.13648 8.46859 3.95298 8.46859C1.76979 8.46859 -0.00012207 6.66379 -0.00012207 4.43729C-0.00012207 2.21099 1.76979 0.406189 3.95298 0.406189ZM52.4998 0.406189C54.6919 0.406189 56.4688 2.21099 56.4688 4.43729C56.4688 6.66379 54.6919 8.46859 52.4998 8.46859C50.3081 8.46859 48.5312 6.66379 48.5312 4.43729C48.5312 2.21099 50.3081 0.406189 52.4998 0.406189ZM105.969 4.43729C105.969 2.21099 104.192 0.406189 102 0.406189C99.8081 0.406189 98.0312 2.21099 98.0312 4.43729C98.0312 6.66379 99.8081 8.46859 102 8.46859C104.192 8.46859 105.969 6.66379 105.969 4.43729ZM148.531 0.406189C150.723 0.406189 152.5 2.21099 152.5 4.43729C152.5 6.66379 150.723 8.46859 148.531 8.46859C146.339 8.46859 144.563 6.66379 144.563 4.43729C144.563 2.21099 146.339 0.406189 148.531 0.406189ZM202.031 4.43729C202.031 2.21099 200.254 0.406189 198.063 0.406189C195.871 0.406189 194.094 2.21099 194.094 4.43729C194.094 6.66379 195.871 8.46859 198.063 8.46859C200.254 8.46859 202.031 6.66379 202.031 4.43729ZM247.563 0.406189C249.754 0.406189 251.531 2.21099 251.531 4.43729C251.531 6.66379 249.754 8.46859 247.563 8.46859C245.371 8.46859 243.594 6.66379 243.594 4.43729C243.594 2.21099 245.371 0.406189 247.563 0.406189ZM301.031 4.43729C301.031 2.21099 299.261 0.406189 297.078 0.406189C294.895 0.406189 293.125 2.21099 293.125 4.43729C293.125 6.66379 294.895 8.46859 297.078 8.46859C299.261 8.46859 301.031 6.66379 301.031 4.43729Z" fill="white"/>
<path d="M487 0H334V8H487V0Z" fill="white"/>
</svg>
